<svg xmlns="http://www.w3.org/2000/svg" xmlns:xlink="http://www.w3.org/1999/xlink" version="1.1" x="0px" y="0px" viewBox="0 0 100 125" enable-background="new 0 0 100 100" xml:space="preserve">
   <defs>
    <filter id="dropshadow" x="0" y="0" width="200%" height="200%">
<feColorMatrix in="SourceAlpha" type="matrix"
  values="-1 0 0 0 1, 0 -1 0 0 1, 0 0 -1 0 1, 0 0 0 1 0"
  result="matrix"/>
<feGaussianBlur in="matrix" stdDeviation="12" result="blur"/>
<feComposite in="SourceGraphic" in2="blur" operator="over"/>
</filter>
  </defs>


    <g  transform="translate(0.000000,2000.000000) scale(0.100000,-0.100000)">
        <path  fill="#a3320f" d="M979.971,19832.957c-2.529-0.977-5.098-3.398-24.746-22.842c-20.361-20.156-32.48-32.109-92.539-91.553   c-12.471-12.324-32.891-32.529-45.371-44.854c-12.471-12.373-43.662-43.203-69.336-68.564c-25.674-25.371-57.324-56.66-70.371-69.6   c-13.047-12.891-33.662-33.311-45.879-45.371c-12.168-12.061-32.744-32.432-45.684-45.312   c-12.988-12.842-23.818-23.564-24.18-23.77s-11.084-10.771-23.916-23.506c-12.783-12.734-33.359-33.154-45.684-45.322   c-12.314-12.217-33.096-32.734-46.133-45.625c-109.717-108.623-127.959-126.562-128.682-126.562c-0.264,0-8.77,8.252-18.867,18.301   c-27.168,26.914-58.213,57.637-109.707,108.574c-25.264,24.902-66.768,65.986-92.285,91.201   c-71.143,70.371-73.623,72.744-75.527,73.721c-1.084,0.566-3.398,1.035-5.674,1.182c-4.951,0.312-8.242-0.977-11.494-4.482   c-4.072-4.326-5.049-10.83-2.471-15.879c1.133-2.266,8.809-9.951,124.551-124.395c12.48-12.324,33.154-32.842,45.938-45.576   c12.832-12.734,23.555-23.252,23.818-23.457c0.254-0.156,21.133-20.723,46.289-45.684c70.732-70.01,67.539-66.914,70.791-67.939   c4.844-1.553,8.965-1.035,12.881,1.592c1.191,0.83,11.504,10.723,22.891,22.012c11.396,11.348,31.191,30.938,43.926,43.564   c12.793,12.637,33.975,33.613,47.178,46.66c13.193,13.096,44.385,43.926,69.336,68.613   c132.803,131.26,158.945,157.09,210.342,207.979c23.506,23.301,87.285,86.299,161.367,159.551   c25.83,25.469,57.119,56.455,69.6,68.828c12.471,12.324,28.144,27.842,34.844,34.492c12.939,12.734,14.229,14.434,14.746,19.277   C1001.006,19828.836,990.127,19836.873,979.971,19832.957z" />
    </g>
</svg>